<svg width="137" height="32" viewBox="0 0 137 32" fill="none" xmlns="http://www.w3.org/2000/svg">
<path d="M0.269998 12L5.31 0.799999H7.358L12.414 12H10.238L5.902 1.904H6.734L2.414 12H0.269998ZM2.59 9.408L3.15 7.776H9.198L9.758 9.408H2.59ZM13.1664 12V0.127999H15.1664V12H13.1664ZM22.5754 12V10.272L22.4634 9.904V6.88C22.4634 6.29333 22.2874 5.84 21.9354 5.52C21.5834 5.18933 21.05 5.024 20.3354 5.024C19.8554 5.024 19.3807 5.09867 18.9114 5.248C18.4527 5.39733 18.0634 5.60533 17.7434 5.872L16.9594 4.416C17.418 4.064 17.962 3.80267 18.5914 3.632C19.2314 3.45067 19.8927 3.36 20.5754 3.36C21.8127 3.36 22.7674 3.65867 23.4394 4.256C24.122 4.84267 24.4634 5.75467 24.4634 6.992V12H22.5754ZM19.8874 12.112C19.2474 12.112 18.6874 12.0053 18.2074 11.792C17.7274 11.568 17.354 11.264 17.0874 10.88C16.8314 10.4853 16.7034 10.0427 16.7034 9.552C16.7034 9.072 16.8154 8.64 17.0394 8.256C17.274 7.872 17.6527 7.568 18.1754 7.344C18.698 7.12 19.3914 7.008 20.2554 7.008H22.7354V8.336H20.3994C19.7167 8.336 19.258 8.448 19.0234 8.672C18.7887 8.88533 18.6714 9.152 18.6714 9.472C18.6714 9.83467 18.8154 10.1227 19.1034 10.336C19.3914 10.5493 19.7914 10.656 20.3034 10.656C20.794 10.656 21.2314 10.544 21.6154 10.32C22.01 10.096 22.2927 9.76533 22.4634 9.328L22.7994 10.528C22.6074 11.0293 22.2607 11.4187 21.7594 11.696C21.2687 11.9733 20.6447 12.112 19.8874 12.112ZM31.3981 3.36C32.0808 3.36 32.6888 3.49333 33.2221 3.76C33.7661 4.02667 34.1928 4.43733 34.5021 4.992C34.8115 5.536 34.9661 6.24 34.9661 7.104V12H32.9661V7.36C32.9661 6.60267 32.7848 6.03733 32.4221 5.664C32.0701 5.29067 31.5741 5.104 30.9341 5.104C30.4648 5.104 30.0488 5.2 29.6861 5.392C29.3235 5.584 29.0408 5.872 28.8381 6.256C28.6461 6.62933 28.5501 7.104 28.5501 7.68V12H26.5501V3.456H28.4541V5.76L28.1181 5.056C28.4168 4.512 28.8488 4.096 29.4141 3.808C29.9901 3.50933 30.6515 3.36 31.3981 3.36ZM44.6291 12.16C43.7545 12.16 42.9171 12.0373 42.1171 11.792C41.3171 11.536 40.6825 11.2107 40.2131 10.816L40.9331 9.2C41.3811 9.552 41.9358 9.84533 42.5971 10.08C43.2585 10.3147 43.9358 10.432 44.6291 10.432C45.2158 10.432 45.6905 10.368 46.0531 10.24C46.4158 10.112 46.6825 9.94133 46.8531 9.728C47.0238 9.504 47.1091 9.25333 47.1091 8.976C47.1091 8.63467 46.9865 8.36267 46.7411 8.16C46.4958 7.94667 46.1758 7.78133 45.7811 7.664C45.3971 7.536 44.9651 7.41867 44.4851 7.312C44.0158 7.20533 43.5411 7.08267 43.0611 6.944C42.5918 6.79467 42.1598 6.608 41.7651 6.384C41.3811 6.14933 41.0665 5.84 40.8211 5.456C40.5758 5.072 40.4531 4.58133 40.4531 3.984C40.4531 3.376 40.6131 2.82133 40.9331 2.32C41.2638 1.808 41.7598 1.40267 42.4211 1.104C43.0931 0.794666 43.9411 0.639999 44.9651 0.639999C45.6371 0.639999 46.3038 0.725333 46.9651 0.896C47.6265 1.06667 48.2025 1.312 48.6931 1.632L48.0371 3.248C47.5358 2.94933 47.0185 2.73067 46.4851 2.592C45.9518 2.44267 45.4398 2.368 44.9491 2.368C44.3731 2.368 43.9038 2.43733 43.5411 2.576C43.1891 2.71467 42.9278 2.896 42.7571 3.12C42.5971 3.344 42.5171 3.6 42.5171 3.888C42.5171 4.22933 42.6345 4.50667 42.8691 4.72C43.1145 4.92267 43.4291 5.08267 43.8131 5.2C44.2078 5.31733 44.6451 5.43467 45.1251 5.552C45.6051 5.65867 46.0798 5.78133 46.5491 5.92C47.0291 6.05867 47.4611 6.24 47.8451 6.464C48.2398 6.688 48.5545 6.992 48.7891 7.376C49.0345 7.76 49.1571 8.24533 49.1571 8.832C49.1571 9.42933 48.9918 9.984 48.6611 10.496C48.3411 10.9973 47.8451 11.4027 47.1731 11.712C46.5011 12.0107 45.6531 12.16 44.6291 12.16ZM51.0954 15.216C50.6794 15.216 50.2634 15.1467 49.8474 15.008C49.4314 14.8693 49.0847 14.6773 48.8074 14.432L49.6074 12.96C49.81 13.1413 50.0394 13.2853 50.2954 13.392C50.5514 13.4987 50.8127 13.552 51.0794 13.552C51.442 13.552 51.7354 13.4613 51.9594 13.28C52.1834 13.0987 52.3914 12.7947 52.5834 12.368L53.0794 11.248L53.2394 11.008L56.4714 3.456H58.3914L54.3914 12.688C54.1247 13.328 53.826 13.8347 53.4954 14.208C53.1754 14.5813 52.8127 14.8427 52.4074 14.992C52.0127 15.1413 51.5754 15.216 51.0954 15.216ZM52.8554 12.304L48.9994 3.456H51.0794L54.2154 10.832L52.8554 12.304ZM61.2615 12L57.5975 3.456H59.6775L62.8295 10.992H61.8055L65.0695 3.456H66.9895L63.3255 12H61.2615ZM72.7579 12V10.272L72.6459 9.904V6.88C72.6459 6.29333 72.4699 5.84 72.1179 5.52C71.7659 5.18933 71.2325 5.024 70.5179 5.024C70.0379 5.024 69.5632 5.09867 69.0939 5.248C68.6352 5.39733 68.2459 5.60533 67.9259 5.872L67.1419 4.416C67.6005 4.064 68.1445 3.80267 68.7739 3.632C69.4139 3.45067 70.0752 3.36 70.7579 3.36C71.9952 3.36 72.9499 3.65867 73.6219 4.256C74.3045 4.84267 74.6459 5.75467 74.6459 6.992V12H72.7579ZM70.0699 12.112C69.4299 12.112 68.8699 12.0053 68.3899 11.792C67.9099 11.568 67.5365 11.264 67.2699 10.88C67.0139 10.4853 66.8859 10.0427 66.8859 9.552C66.8859 9.072 66.9979 8.64 67.2219 8.256C67.4565 7.872 67.8352 7.568 68.3579 7.344C68.8805 7.12 69.5739 7.008 70.4379 7.008H72.9179V8.336H70.5819C69.8992 8.336 69.4405 8.448 69.2059 8.672C68.9712 8.88533 68.8539 9.152 68.8539 9.472C68.8539 9.83467 68.9979 10.1227 69.2859 10.336C69.5739 10.5493 69.9739 10.656 70.4859 10.656C70.9765 10.656 71.4139 10.544 71.7979 10.32C72.1925 10.096 72.4752 9.76533 72.6459 9.328L72.9819 10.528C72.7899 11.0293 72.4432 11.4187 71.9419 11.696C71.4512 11.9733 70.8272 12.112 70.0699 12.112ZM81.5806 3.36C82.2633 3.36 82.8713 3.49333 83.4046 3.76C83.9486 4.02667 84.3753 4.43733 84.6846 4.992C84.994 5.536 85.1486 6.24 85.1486 7.104V12H83.1486V7.36C83.1486 6.60267 82.9673 6.03733 82.6046 5.664C82.2526 5.29067 81.7566 5.104 81.1166 5.104C80.6473 5.104 80.2313 5.2 79.8686 5.392C79.506 5.584 79.2233 5.872 79.0206 6.256C78.8286 6.62933 78.7326 7.104 78.7326 7.68V12H76.7326V3.456H78.6366V5.76L78.3006 5.056C78.5993 4.512 79.0313 4.096 79.5966 3.808C80.1726 3.50933 80.834 3.36 81.5806 3.36ZM92.0537 3.36C92.7364 3.36 93.3444 3.49333 93.8777 3.76C94.4217 4.02667 94.8484 4.43733 95.1577 4.992C95.4671 5.536 95.6217 6.24 95.6217 7.104V12H93.6217V7.36C93.6217 6.60267 93.4404 6.03733 93.0777 5.664C92.7257 5.29067 92.2297 5.104 91.5897 5.104C91.1204 5.104 90.7044 5.2 90.3417 5.392C89.9791 5.584 89.6964 5.872 89.4937 6.256C89.3017 6.62933 89.2057 7.104 89.2057 7.68V12H87.2057V3.456H89.1097V5.76L88.7737 5.056C89.0724 4.512 89.5044 4.096 90.0697 3.808C90.6457 3.50933 91.3071 3.36 92.0537 3.36ZM102.943 12V10.272L102.831 9.904V6.88C102.831 6.29333 102.655 5.84 102.303 5.52C101.951 5.18933 101.418 5.024 100.703 5.024C100.223 5.024 99.7482 5.09867 99.2789 5.248C98.8202 5.39733 98.4309 5.60533 98.1109 5.872L97.3269 4.416C97.7855 4.064 98.3295 3.80267 98.9589 3.632C99.5989 3.45067 100.26 3.36 100.943 3.36C102.18 3.36 103.135 3.65867 103.807 4.256C104.49 4.84267 104.831 5.75467 104.831 6.992V12H102.943ZM100.255 12.112C99.6149 12.112 99.0549 12.0053 98.5749 11.792C98.0949 11.568 97.7215 11.264 97.4549 10.88C97.1989 10.4853 97.0709 10.0427 97.0709 9.552C97.0709 9.072 97.1829 8.64 97.4069 8.256C97.6415 7.872 98.0202 7.568 98.5429 7.344C99.0655 7.12 99.7589 7.008 100.623 7.008H103.103V8.336H100.767C100.084 8.336 99.6255 8.448 99.3909 8.672C99.1562 8.88533 99.0389 9.152 99.0389 9.472C99.0389 9.83467 99.1829 10.1227 99.4709 10.336C99.7589 10.5493 100.159 10.656 100.671 10.656C101.162 10.656 101.599 10.544 101.983 10.32C102.378 10.096 102.66 9.76533 102.831 9.328L103.167 10.528C102.975 11.0293 102.628 11.4187 102.127 11.696C101.636 11.9733 101.012 12.112 100.255 12.112ZM106.918 12V3.456H108.822V5.808L108.598 5.12C108.854 4.544 109.254 4.10667 109.798 3.808C110.352 3.50933 111.04 3.36 111.862 3.36V5.264C111.776 5.24267 111.696 5.232 111.622 5.232C111.547 5.22133 111.472 5.216 111.398 5.216C110.64 5.216 110.038 5.44 109.59 5.888C109.142 6.32533 108.918 6.98133 108.918 7.856V12H106.918ZM117.733 12V10.272L117.621 9.904V6.88C117.621 6.29333 117.445 5.84 117.093 5.52C116.741 5.18933 116.208 5.024 115.493 5.024C115.013 5.024 114.538 5.09867 114.069 5.248C113.61 5.39733 113.221 5.60533 112.901 5.872L112.117 4.416C112.576 4.064 113.12 3.80267 113.749 3.632C114.389 3.45067 115.05 3.36 115.733 3.36C116.97 3.36 117.925 3.65867 118.597 4.256C119.28 4.84267 119.621 5.75467 119.621 6.992V12H117.733ZM115.045 12.112C114.405 12.112 113.845 12.0053 113.365 11.792C112.885 11.568 112.512 11.264 112.245 10.88C111.989 10.4853 111.861 10.0427 111.861 9.552C111.861 9.072 111.973 8.64 112.197 8.256C112.432 7.872 112.81 7.568 113.333 7.344C113.856 7.12 114.549 7.008 115.413 7.008H117.893V8.336H115.557C114.874 8.336 114.416 8.448 114.181 8.672C113.946 8.88533 113.829 9.152 113.829 9.472C113.829 9.83467 113.973 10.1227 114.261 10.336C114.549 10.5493 114.949 10.656 115.461 10.656C115.952 10.656 116.389 10.544 116.773 10.32C117.168 10.096 117.45 9.76533 117.621 9.328L117.957 10.528C117.765 11.0293 117.418 11.4187 116.917 11.696C116.426 11.9733 115.802 12.112 115.045 12.112ZM124.924 12.112C123.985 12.112 123.26 11.872 122.748 11.392C122.236 10.9013 121.98 10.1813 121.98 9.232V1.568H123.98V9.184C123.98 9.58933 124.081 9.904 124.284 10.128C124.497 10.352 124.79 10.464 125.164 10.464C125.612 10.464 125.985 10.3467 126.284 10.112L126.844 11.536C126.609 11.728 126.321 11.872 125.98 11.968C125.638 12.064 125.286 12.112 124.924 12.112ZM120.572 5.12V3.52H126.268V5.12H120.572ZM132.857 3.36C133.54 3.36 134.148 3.49333 134.681 3.76C135.225 4.02667 135.652 4.43733 135.961 4.992C136.27 5.536 136.425 6.24 136.425 7.104V12H134.425V7.36C134.425 6.60267 134.244 6.03733 133.881 5.664C133.529 5.29067 133.033 5.104 132.393 5.104C131.924 5.104 131.508 5.2 131.145 5.392C130.782 5.584 130.5 5.872 130.297 6.256C130.105 6.62933 130.009 7.104 130.009 7.68V12H128.009V0.127999H130.009V5.76L129.577 5.056C129.876 4.512 130.308 4.096 130.873 3.808C131.449 3.50933 132.11 3.36 132.857 3.36ZM17.9436 28V16.8H21.9596C22.8982 16.8 23.7036 16.9493 24.3756 17.248C25.0476 17.5467 25.5649 17.9787 25.9276 18.544C26.2902 19.0987 26.4716 19.776 26.4716 20.576C26.4716 21.3547 26.2902 22.0267 25.9276 22.592C25.5649 23.1573 25.0476 23.5893 24.3756 23.888C23.7036 24.1867 22.8982 24.336 21.9596 24.336H18.3916L18.7596 23.952V28H17.9436ZM18.7596 24L18.3916 23.6H21.9596C23.1649 23.6 24.0769 23.3387 24.6956 22.816C25.3249 22.2827 25.6396 21.536 25.6396 20.576C25.6396 19.6053 25.3249 18.8587 24.6956 18.336C24.0769 17.8027 23.1649 17.536 21.9596 17.536H18.3916L18.7596 17.136V24ZM32.7251 19.584C33.4077 19.584 33.9997 19.7173 34.5011 19.984C35.0131 20.24 35.4077 20.6347 35.6851 21.168C35.9731 21.6907 36.1171 22.3413 36.1171 23.12V28H35.3171V23.184C35.3171 22.2453 35.0771 21.5307 34.5971 21.04C34.1277 20.5493 33.4664 20.304 32.6131 20.304C31.9624 20.304 31.3971 20.4373 30.9171 20.704C30.4371 20.9707 30.0691 21.344 29.8131 21.824C29.5677 22.304 29.4451 22.88 29.4451 23.552V28H28.6451V16.128H29.4451V21.968L29.3011 21.712C29.5571 21.0507 29.9784 20.5333 30.5651 20.16C31.1517 19.776 31.8717 19.584 32.7251 19.584ZM42.1947 28.064C41.3947 28.064 40.68 27.8827 40.0507 27.52C39.432 27.1573 38.936 26.656 38.5627 26.016C38.2 25.376 38.0187 24.6453 38.0187 23.824C38.0187 22.992 38.2 22.2613 38.5627 21.632C38.936 20.992 39.432 20.4907 40.0507 20.128C40.68 19.7653 41.3947 19.584 42.1947 19.584C42.9947 19.584 43.7094 19.7653 44.3387 20.128C44.968 20.4907 45.464 20.992 45.8267 21.632C46.1894 22.2613 46.3707 22.992 46.3707 23.824C46.3707 24.6453 46.1894 25.376 45.8267 26.016C45.464 26.656 44.968 27.1573 44.3387 27.52C43.7094 27.8827 42.9947 28.064 42.1947 28.064ZM42.1947 27.344C42.8347 27.344 43.4107 27.2 43.9227 26.912C44.4347 26.6133 44.8347 26.1973 45.1227 25.664C45.4107 25.1307 45.5547 24.5173 45.5547 23.824C45.5547 23.12 45.4107 22.5067 45.1227 21.984C44.8347 21.4507 44.4347 21.04 43.9227 20.752C43.4107 20.4533 42.8347 20.304 42.1947 20.304C41.5547 20.304 40.9787 20.4533 40.4667 20.752C39.9654 21.04 39.5654 21.4507 39.2667 21.984C38.9787 22.5067 38.8347 23.12 38.8347 23.824C38.8347 24.5173 38.9787 25.1307 39.2667 25.664C39.5654 26.1973 39.9654 26.6133 40.4667 26.912C40.9787 27.2 41.5547 27.344 42.1947 27.344ZM50.8046 28.064C50.0686 28.064 49.5032 27.8613 49.1086 27.456C48.7246 27.0507 48.5326 26.496 48.5326 25.792V17.824H49.3326V25.712C49.3326 26.2453 49.4659 26.656 49.7326 26.944C49.9992 27.232 50.3832 27.376 50.8846 27.376C51.4072 27.376 51.8392 27.2213 52.1806 26.912L52.5166 27.472C52.3032 27.6747 52.0419 27.824 51.7326 27.92C51.4339 28.016 51.1246 28.064 50.8046 28.064ZM46.9966 20.336V19.648H51.9886V20.336H46.9966ZM57.2347 28.064C56.4347 28.064 55.72 27.8827 55.0907 27.52C54.472 27.1573 53.976 26.656 53.6027 26.016C53.24 25.376 53.0587 24.6453 53.0587 23.824C53.0587 22.992 53.24 22.2613 53.6027 21.632C53.976 20.992 54.472 20.4907 55.0907 20.128C55.72 19.7653 56.4347 19.584 57.2347 19.584C58.0347 19.584 58.7494 19.7653 59.3787 20.128C60.008 20.4907 60.504 20.992 60.8667 21.632C61.2294 22.2613 61.4107 22.992 61.4107 23.824C61.4107 24.6453 61.2294 25.376 60.8667 26.016C60.504 26.656 60.008 27.1573 59.3787 27.52C58.7494 27.8827 58.0347 28.064 57.2347 28.064ZM57.2347 27.344C57.8747 27.344 58.4507 27.2 58.9627 26.912C59.4747 26.6133 59.8747 26.1973 60.1627 25.664C60.4507 25.1307 60.5947 24.5173 60.5947 23.824C60.5947 23.12 60.4507 22.5067 60.1627 21.984C59.8747 21.4507 59.4747 21.04 58.9627 20.752C58.4507 20.4533 57.8747 20.304 57.2347 20.304C56.5947 20.304 56.0187 20.4533 55.5067 20.752C55.0054 21.04 54.6054 21.4507 54.3067 21.984C54.0187 22.5067 53.8747 23.12 53.8747 23.824C53.8747 24.5173 54.0187 25.1307 54.3067 25.664C54.6054 26.1973 55.0054 26.6133 55.5067 26.912C56.0187 27.2 56.5947 27.344 57.2347 27.344ZM66.8846 31.168C66.1272 31.168 65.4072 31.0507 64.7246 30.816C64.0419 30.5813 63.4872 30.256 63.0606 29.84L63.4926 29.232C63.9086 29.616 64.4046 29.9147 64.9806 30.128C65.5672 30.3413 66.1966 30.448 66.8686 30.448C67.9886 30.448 68.8099 30.1867 69.3326 29.664C69.8659 29.1413 70.1326 28.32 70.1326 27.2V24.88L70.2926 23.632L70.1646 22.384V19.648H70.9326V27.104C70.9326 28.5013 70.5912 29.5253 69.9086 30.176C69.2366 30.8373 68.2286 31.168 66.8846 31.168ZM66.6606 27.696C65.8712 27.696 65.1619 27.5253 64.5326 27.184C63.9139 26.832 63.4179 26.352 63.0446 25.744C62.6819 25.1253 62.5006 24.4213 62.5006 23.632C62.5006 22.832 62.6819 22.128 63.0446 21.52C63.4179 20.912 63.9139 20.4373 64.5326 20.096C65.1619 19.7547 65.8712 19.584 66.6606 19.584C67.4179 19.584 68.0952 19.7493 68.6926 20.08C69.3006 20.4 69.7806 20.864 70.1326 21.472C70.4846 22.0693 70.6606 22.7893 70.6606 23.632C70.6606 24.464 70.4846 25.184 70.1326 25.792C69.7806 26.4 69.3006 26.8693 68.6926 27.2C68.0952 27.5307 67.4179 27.696 66.6606 27.696ZM66.7246 26.976C67.3966 26.976 67.9886 26.8373 68.5006 26.56C69.0126 26.272 69.4126 25.8773 69.7006 25.376C69.9992 24.864 70.1486 24.2827 70.1486 23.632C70.1486 22.9707 69.9992 22.3893 69.7006 21.888C69.4126 21.3867 69.0126 20.9973 68.5006 20.72C67.9886 20.4427 67.3966 20.304 66.7246 20.304C66.0739 20.304 65.4872 20.4427 64.9646 20.72C64.4526 20.9973 64.0472 21.3867 63.7486 21.888C63.4606 22.3893 63.3166 22.9707 63.3166 23.632C63.3166 24.2827 63.4606 24.864 63.7486 25.376C64.0472 25.8773 64.4526 26.272 64.9646 26.56C65.4872 26.8373 66.0739 26.976 66.7246 26.976ZM73.8388 28V19.648H74.6068V21.936L74.5268 21.68C74.7615 21.008 75.1561 20.4907 75.7108 20.128C76.2655 19.7653 76.9588 19.584 77.7908 19.584V20.368C77.7588 20.368 77.7268 20.368 77.6948 20.368C77.6628 20.3573 77.6308 20.352 77.5988 20.352C76.6708 20.352 75.9455 20.6453 75.4228 21.232C74.9001 21.808 74.6388 22.6133 74.6388 23.648V28H73.8388ZM84.1541 28V26.096L84.1221 25.808V22.672C84.1221 21.8933 83.9087 21.3013 83.4821 20.896C83.0661 20.4907 82.4527 20.288 81.6421 20.288C81.0661 20.288 80.5274 20.3893 80.0261 20.592C79.5354 20.784 79.1141 21.0347 78.7621 21.344L78.3621 20.768C78.7781 20.3947 79.2794 20.1067 79.8661 19.904C80.4527 19.6907 81.0661 19.584 81.7061 19.584C82.7407 19.584 83.5354 19.8453 84.0901 20.368C84.6447 20.8907 84.9221 21.6693 84.9221 22.704V28H84.1541ZM81.1461 28.064C80.5274 28.064 79.9887 27.968 79.5301 27.776C79.0821 27.5733 78.7354 27.2907 78.4901 26.928C78.2554 26.5653 78.1381 26.1493 78.1381 25.68C78.1381 25.2533 78.2341 24.8693 78.4261 24.528C78.6287 24.176 78.9594 23.8933 79.4181 23.68C79.8767 23.456 80.4901 23.344 81.2581 23.344H84.3301V23.968H81.2741C80.4101 23.968 79.8021 24.128 79.4501 24.448C79.1087 24.768 78.9381 25.168 78.9381 25.648C78.9381 26.1813 79.1407 26.608 79.5461 26.928C79.9514 27.248 80.5221 27.408 81.2581 27.408C81.9621 27.408 82.5541 27.248 83.0341 26.928C83.5247 26.608 83.8874 26.144 84.1221 25.536L84.3461 26.08C84.1221 26.688 83.7381 27.1733 83.1941 27.536C82.6607 27.888 81.9781 28.064 81.1461 28.064ZM91.9302 28.064C91.1942 28.064 90.5275 27.8933 89.9302 27.552C89.3435 27.2107 88.8742 26.7253 88.5222 26.096C88.1809 25.456 88.0102 24.6987 88.0102 23.824C88.0102 22.9493 88.1809 22.1973 88.5222 21.568C88.8742 20.928 89.3435 20.4373 89.9302 20.096C90.5275 19.7547 91.1942 19.584 91.9302 19.584C92.7195 19.584 93.4235 19.7653 94.0422 20.128C94.6715 20.48 95.1622 20.976 95.5142 21.616C95.8769 22.256 96.0582 22.992 96.0582 23.824C96.0582 24.656 95.8769 25.392 95.5142 26.032C95.1622 26.672 94.6715 27.1733 94.0422 27.536C93.4235 27.888 92.7195 28.064 91.9302 28.064ZM87.7382 31.104V19.648H88.5062V22.384L88.3782 23.84L88.5382 25.296V31.104H87.7382ZM91.8822 27.344C92.5222 27.344 93.0982 27.2 93.6102 26.912C94.1222 26.6133 94.5222 26.1973 94.8102 25.664C95.1089 25.1307 95.2582 24.5173 95.2582 23.824C95.2582 23.12 95.1089 22.5067 94.8102 21.984C94.5222 21.4507 94.1222 21.04 93.6102 20.752C93.0982 20.4533 92.5222 20.304 91.8822 20.304C91.2422 20.304 90.6662 20.4533 90.1542 20.752C89.6529 21.04 89.2529 21.4507 88.9542 21.984C88.6662 22.5067 88.5222 23.12 88.5222 23.824C88.5222 24.5173 88.6662 25.1307 88.9542 25.664C89.2529 26.1973 89.6529 26.6133 90.1542 26.912C90.6662 27.2 91.2422 27.344 91.8822 27.344ZM102.135 19.584C102.818 19.584 103.41 19.7173 103.911 19.984C104.423 20.24 104.818 20.6347 105.095 21.168C105.383 21.6907 105.527 22.3413 105.527 23.12V28H104.727V23.184C104.727 22.2453 104.487 21.5307 104.007 21.04C103.538 20.5493 102.876 20.304 102.023 20.304C101.372 20.304 100.807 20.4373 100.327 20.704C99.8471 20.9707 99.4791 21.344 99.2231 21.824C98.9777 22.304 98.8551 22.88 98.8551 23.552V28H98.0551V16.128H98.8551V21.968L98.7111 21.712C98.9671 21.0507 99.3884 20.5333 99.9751 20.16C100.562 19.776 101.282 19.584 102.135 19.584ZM111.733 28.064C110.89 28.064 110.143 27.8827 109.493 27.52C108.853 27.1573 108.346 26.656 107.973 26.016C107.61 25.376 107.429 24.6453 107.429 23.824C107.429 22.992 107.599 22.2613 107.941 21.632C108.293 20.992 108.773 20.4907 109.381 20.128C109.989 19.7653 110.671 19.584 111.429 19.584C112.186 19.584 112.863 19.76 113.461 20.112C114.069 20.464 114.543 20.96 114.885 21.6C115.237 22.2293 115.413 22.96 115.413 23.792C115.413 23.824 115.407 23.8613 115.397 23.904C115.397 23.936 115.397 23.9733 115.397 24.016H108.021V23.392H114.965L114.645 23.696C114.655 23.0453 114.517 22.464 114.229 21.952C113.951 21.4293 113.573 21.024 113.093 20.736C112.613 20.4373 112.058 20.288 111.429 20.288C110.81 20.288 110.255 20.4373 109.765 20.736C109.285 21.024 108.906 21.4293 108.629 21.952C108.351 22.464 108.213 23.0507 108.213 23.712V23.856C108.213 24.5387 108.362 25.1467 108.661 25.68C108.97 26.2027 109.391 26.6133 109.925 26.912C110.458 27.2 111.066 27.344 111.749 27.344C112.282 27.344 112.778 27.248 113.237 27.056C113.706 26.864 114.101 26.5707 114.421 26.176L114.885 26.704C114.522 27.152 114.063 27.4933 113.509 27.728C112.965 27.952 112.373 28.064 111.733 28.064ZM117.408 28V19.648H118.176V21.936L118.096 21.68C118.33 21.008 118.725 20.4907 119.28 20.128C119.834 19.7653 120.528 19.584 121.36 19.584V20.368C121.328 20.368 121.296 20.368 121.264 20.368C121.232 20.3573 121.2 20.352 121.168 20.352C120.24 20.352 119.514 20.6453 118.992 21.232C118.469 21.808 118.208 22.6133 118.208 23.648V28H117.408Z" fill="black"/>
</svg>
